<svg aria-hidden="true" version="1.1" xmlns="http://www.w3.org/2000/svg" xmlns:xlink="http://www.w3.org/1999/xlink">
<defs>
<symbol id="icons-right" viewBox="0 0 32 32">
<path d="M9.333 32c-0.002 0-0.005 0-0.008 0-0.366 0-0.698-0.148-0.939-0.387l0 0c-0.244-0.242-0.394-0.577-0.394-0.947s0.151-0.705 0.394-0.947l10.893-10.893c0.723-0.724 1.17-1.723 1.17-2.827s-0.447-2.103-1.17-2.827l-10.893-10.893c-0.242-0.242-0.392-0.577-0.392-0.947 0-0.739 0.599-1.339 1.339-1.339 0.37 0 0.704 0.15 0.947 0.392l10.893 10.893c1.21 1.207 1.959 2.876 1.959 4.72s-0.749 3.513-1.958 4.72l-10.893 10.893c-0.241 0.239-0.573 0.387-0.939 0.387-0.003 0-0.005 0-0.008-0h0z"></path>
</symbol>
<symbol id="icons-left" viewBox="0 0 32 32">
<path d="M22.893 32c-0.002 0-0.005 0-0.008 0-0.366 0-0.698-0.148-0.939-0.387l-10.893-10.893c-1.21-1.207-1.959-2.876-1.959-4.72s0.749-3.513 1.958-4.72l10.893-10.893c0.242-0.242 0.577-0.392 0.947-0.392 0.739 0 1.339 0.599 1.339 1.339 0 0.37-0.15 0.704-0.392 0.947l-10.893 10.893c-0.723 0.724-1.17 1.723-1.17 2.827s0.447 2.103 1.17 2.827l10.893 10.893c0.244 0.242 0.394 0.577 0.394 0.947s-0.151 0.705-0.394 0.947l-0 0c-0.241 0.239-0.573 0.387-0.939 0.387-0.003 0-0.005 0-0.008-0h0z"></path>
</symbol>
</defs>
</svg>
